<svg xmlns="http://www.w3.org/2000/svg" viewBox="0 0 500 500">
  <defs>
    <!-- Mask: white everywhere except the P body — makes green arc appear behind P -->
    <mask id="behindP">
      <rect width="500" height="500" fill="white"/>
      <g transform="translate(0,500) scale(0.1,-0.1)" fill="black">
        <path d="M2520 2744 c-148 -147 -270 -271 -270 -276 0 -4 270 -8 600 -8 580 0 601 -1 654 -20 56 -22 101 -62 133 -123 12 -23 17 -54 17 -112 -1 -68 -5 -87 -26 -120 -37 -59 -77 -95 -133 -121 l-50 -24 -1200 0 -1200 0 -270 -270 -270 -270 772 0 773 0 2 -503 3 -502 265 0 265 0 3 503 2 502 473 0 c380 0 483 3 526 15 281 74 493 285 572 566 33 119 44 241 30 348 -29 220 -105 366 -259 497 -80 69 -155 109 -262 143 -102 32 -114 33 -507 38 l-373 5 -270 -268z"/>
      </g>
    </mask>
  </defs>

  <!-- Layer 1: Green arc — behind P -->
  <g transform="translate(0,500) scale(0.1,-0.1)" fill="#00B073" mask="url(#behindP)">
    <path d="M1295 4165 c-193 -36 -371 -140 -500 -293 -350 -417 -281 -999 152 -1275 37 -24 97 -56 133 -70 128 -54 176 -59 574 -64 l369 -5 273 273 274 274 -632 5 -633 5 -47 23 c-129 65 -197 204 -168 343 25 116 117 220 220 249 21 6 324 10 781 10 l745 0 240 243 c131 133 250 255 263 270 l24 27 -999 -1 c-775 -1 -1015 -4 -1069 -14z"/>
  </g>

  <!-- Layer 2: Dark P shape on top -->
  <g transform="translate(0,500) scale(0.1,-0.1)" fill="#0B151E">
    <path d="M2520 2744 c-148 -147 -270 -271 -270 -276 0 -4 270 -8 600 -8 580 0 601 -1 654 -20 56 -22 101 -62 133 -123 12 -23 17 -54 17 -112 -1 -68 -5 -87 -26 -120 -37 -59 -77 -95 -133 -121 l-50 -24 -1200 0 -1200 0 -270 -270 -270 -270 772 0 773 0 2 -503 3 -502 265 0 265 0 3 503 2 502 473 0 c380 0 483 3 526 15 281 74 493 285 572 566 33 119 44 241 30 348 -29 220 -105 366 -259 497 -80 69 -155 109 -262 143 -102 32 -114 33 -507 38 l-373 5 -270 -268z"/>
  </g>

  <!-- Layer 3: Dark S shape on top -->
  <g transform="translate(-5,-5)">
    <g transform="translate(0,500) scale(0.1,-0.1)" fill="#0B151E">
      <path d="M4705 4579 c-11 -4 -172 -52 -359 -105 l-338 -98 49 -46 c27 -25 71 -64 98 -88 l48 -42 -24 -28 c-13 -15 -51 -56 -84 -92 -56 -60 -177 -195 -285 -314 -25 -28 -64 -71 -87 -96 -23 -25 -51 -57 -63 -73 -26 -33 -23 -35 -154 91 -53 51 -100 92 -105 92 -13 0 -671 -689 -671 -702 0 -5 68 -8 152 -8 l151 0 183 188 182 187 84 -80 c158 -153 158 -152 172 -132 7 9 44 50 82 90 38 40 119 126 179 192 61 65 142 153 181 195 39 41 122 130 184 198 100 107 115 120 129 108 9 -7 52 -45 96 -84 44 -40 82 -68 86 -64 4 4 32 135 63 292 32 157 64 314 72 349 15 69 11 84 -21 70z"/>
    </g>
  </g>
</svg>
